<?xml version="1.0" encoding="UTF-8"?>
<!DOCTYPE svg PUBLIC "-//W3C//DTD SVG 1.1//EN" "http://www.w3.org/Graphics/SVG/1.1/DTD/svg11.dtd">
<svg xmlns="http://www.w3.org/2000/svg" version="1.1" width="1024px" height="676px" style="shape-rendering:geometricPrecision; text-rendering:geometricPrecision; image-rendering:optimizeQuality; fill-rule:evenodd; clip-rule:evenodd" xmlns:xlink="http://www.w3.org/1999/xlink">
<g><path style="opacity:1" fill="#060605" d="M 476.5,-0.5 C 499.833,-0.5 523.167,-0.5 546.5,-0.5C 639.649,3.53683 728.649,25.0368 813.5,64C 877.323,93.4877 930.823,135.988 974,191.5C 978.814,197.803 982.98,204.469 986.5,211.5C 986.427,213.027 987.094,214.027 988.5,214.5C 997.693,229.223 1005.03,244.89 1010.5,261.5C 1010.72,265.162 1011.72,268.495 1013.5,271.5C 1013.41,274.152 1014.08,276.485 1015.5,278.5C 1017.59,283.878 1018.93,289.545 1019.5,295.5C 1019.76,302.736 1020.76,309.736 1022.5,316.5C 1022.5,317.167 1022.83,317.5 1023.5,317.5C 1023.5,330.833 1023.5,344.167 1023.5,357.5C 1017.49,406.841 999.328,451.174 969,490.5C 932.391,535.537 888.558,571.703 837.5,599C 763.026,637.712 684.026,661.712 600.5,671C 584.357,672.621 568.357,674.121 552.5,675.5C 525.167,675.5 497.833,675.5 470.5,675.5C 457.244,674.394 443.91,673.06 430.5,671.5C 425.402,670.043 420.069,669.376 414.5,669.5C 409.731,668.111 404.731,667.444 399.5,667.5C 371.598,664.02 344.264,658.353 317.5,650.5C 315.485,649.076 313.152,648.41 310.5,648.5C 307.495,646.723 304.162,645.723 300.5,645.5C 298.485,644.076 296.152,643.41 293.5,643.5C 253.111,631.8 214.777,615.467 178.5,594.5C 178.027,593.094 177.027,592.427 175.5,592.5C 169.332,589.92 163.665,586.586 158.5,582.5C 158.027,581.094 157.027,580.427 155.5,580.5C 132.828,567.17 112.161,551.17 93.5,532.5C 92.7377,530.738 91.4044,529.738 89.5,529.5C 52.1218,494.773 25.2884,453.106 9,404.5C 4.71866,389.256 1.55199,373.922 -0.5,358.5C -0.5,344.833 -0.5,331.167 -0.5,317.5C 0.166667,317.5 0.5,317.167 0.5,316.5C 2.23542,309.736 3.23542,302.736 3.5,295.5C 3.75376,290.556 4.75376,285.889 6.5,281.5C 8.2766,278.495 9.2766,275.162 9.5,271.5C 10.9238,269.485 11.5905,267.152 11.5,264.5C 26.2749,221.093 50.2749,183.76 83.5,152.5C 85.5,151.167 87.1667,149.5 88.5,147.5C 89.5,145.833 90.8333,144.5 92.5,143.5C 96.1002,141.57 99.1002,138.903 101.5,135.5C 125.652,113.744 151.986,94.911 180.5,79C 210.957,62.3495 242.624,48.5161 275.5,37.5C 281.166,36.6096 286.5,34.943 291.5,32.5C 296.165,31.9431 300.498,30.6098 304.5,28.5C 306.515,27.0762 308.848,26.4095 311.5,26.5C 314.152,26.5905 316.485,25.9238 318.5,24.5C 337.381,18.6545 356.714,14.3212 376.5,11.5C 390.056,10.1276 403.389,8.12756 416.5,5.5C 436.421,2.63446 456.421,0.634457 476.5,-0.5 Z"/></g>
<g><path style="opacity:1" fill="#505050" d="M 416.5,5.5 C 403.389,8.12756 390.056,10.1276 376.5,11.5C 389.553,8.49151 402.886,6.49151 416.5,5.5 Z"/></g>
<g><path style="opacity:1" fill="#606060" d="M 318.5,24.5 C 316.485,25.9238 314.152,26.5905 311.5,26.5C 313.515,25.0762 315.848,24.4095 318.5,24.5 Z"/></g>
<g><path style="opacity:1" fill="#fdfd00" d="M 978.5,281.5 C 978.41,284.152 979.076,286.485 980.5,288.5C 982.246,292.889 983.246,297.556 983.5,302.5C 983.362,307.414 984.028,312.081 985.5,316.5C 989.776,365.958 978.609,411.625 952,453.5C 928.63,489.205 899.463,519.371 864.5,544C 800.83,586.99 731.163,615.99 655.5,631C 582.367,645.856 508.701,649.356 434.5,641.5C 429.731,640.111 424.731,639.444 419.5,639.5C 387.169,635.838 355.502,629.505 324.5,620.5C 322.485,619.076 320.152,618.41 317.5,618.5C 243.871,598.528 178.537,563.695 121.5,514C 88.6739,483.844 64.1739,448.011 48,406.5C 38.2373,377.202 34.7373,347.202 37.5,316.5C 38.9715,312.081 39.6382,307.414 39.5,302.5C 43.5377,277.22 52.0377,253.553 65,231.5C 87.4994,194.663 115.999,163.163 150.5,137C 194.629,104.601 242.963,80.1009 295.5,63.5C 300.165,62.9431 304.498,61.6098 308.5,59.5C 340.087,49.3143 372.421,41.981 405.5,37.5C 410.731,37.5557 415.731,36.889 420.5,35.5C 424.4,34.5701 428.4,34.2367 432.5,34.5C 437.414,34.6382 442.081,33.9715 446.5,32.5C 548.472,23.3964 647.805,35.5631 744.5,69C 796.598,88.2041 844.264,114.871 887.5,149C 924.402,179.565 952.568,216.732 972,260.5C 974.879,267.301 977.045,274.301 978.5,281.5 Z"/></g>
<g><path style="opacity:1" fill="#4e4e4e" d="M 304.5,28.5 C 300.498,30.6098 296.165,31.9431 291.5,32.5C 295.502,30.3902 299.835,29.0569 304.5,28.5 Z"/></g>
<g><path style="opacity:1" fill="#b3b300" d="M 446.5,32.5 C 442.081,33.9715 437.414,34.6382 432.5,34.5C 436.919,33.0285 441.586,32.3618 446.5,32.5 Z"/></g>
<g><path style="opacity:1" fill="#606060" d="M 291.5,32.5 C 286.5,34.943 281.166,36.6096 275.5,37.5C 280.5,35.057 285.834,33.3904 291.5,32.5 Z"/></g>
<g><path style="opacity:1" fill="#929202" d="M 420.5,35.5 C 415.731,36.889 410.731,37.5557 405.5,37.5C 410.269,36.111 415.269,35.4443 420.5,35.5 Z"/></g>
<g><path style="opacity:1" fill="#b9b900" d="M 308.5,59.5 C 304.498,61.6098 300.165,62.9431 295.5,63.5C 299.502,61.3902 303.835,60.0569 308.5,59.5 Z"/></g>
<g><path style="opacity:1" fill="#404009" d="M 337.5,82.5 C 336.791,81.596 335.791,81.2627 334.5,81.5C 336.939,79.965 339.606,79.1317 342.5,79C 341.154,80.6692 339.487,81.8358 337.5,82.5 Z"/></g>
<g><path style="opacity:1" fill="#000000" d="M 950.5,361.5 C 949.419,364.627 948.753,367.96 948.5,371.5C 938.421,419.169 915.754,459.669 880.5,493C 858.929,512.457 835.263,528.957 809.5,542.5C 824.261,530.349 838.761,517.015 853,502.5C 869.218,484.399 879.884,463.399 885,439.5C 889.371,409.759 879.205,386.592 854.5,370C 815.572,353.544 788.405,365.044 773,404.5C 771.05,411.086 769.55,417.753 768.5,424.5C 767.111,429.269 766.444,434.269 766.5,439.5C 766.664,442.187 766.497,444.854 766,447.5C 759.509,427.675 746.342,414.509 726.5,408C 720.303,406.033 713.97,404.867 707.5,404.5C 704.351,403.835 701.018,403.502 697.5,403.5C 691.923,403.368 686.59,404.035 681.5,405.5C 644.898,413.935 623.065,436.602 616,473.5C 614.816,489.314 615.65,504.98 618.5,520.5C 618.179,522.048 617.179,522.715 615.5,522.5C 600.027,518.98 584.36,517.813 568.5,519C 541.702,524.128 524.869,539.962 518,566.5C 516.344,572.426 515.177,578.426 514.5,584.5C 513.111,589.269 512.444,594.269 512.5,599.5C 512.5,600.5 512.5,601.5 512.5,602.5C 511.833,603.167 511.167,603.833 510.5,604.5C 509.744,584.144 504.911,564.811 496,546.5C 486.726,531.268 473.226,522.101 455.5,519C 438.599,517.581 421.932,518.748 405.5,522.5C 404.662,522.158 404.328,521.492 404.5,520.5C 407.285,504.961 408.118,489.294 407,473.5C 399.682,436.183 377.515,413.35 340.5,405C 315.777,400.692 293.444,406.026 273.5,421C 266,428.174 260.5,436.674 257,446.5C 257.049,423.684 251.049,402.684 239,383.5C 221.137,362.491 199.304,356.991 173.5,367C 141.492,386.217 130.325,414.05 140,450.5C 146.422,470.025 156.422,487.359 170,502.5C 183.91,518.006 199.41,531.506 216.5,543C 158.616,516.451 115.782,474.285 88,416.5C 85.0406,409.107 82.2073,401.773 79.5,394.5C 79.5905,391.848 78.9238,389.515 77.5,387.5C 63.598,329.29 74.098,275.956 109,227.5C 135.876,191.951 168.376,162.785 206.5,140C 247.003,115.776 289.67,96.2763 334.5,81.5C 335.791,81.2627 336.791,81.596 337.5,82.5C 317.722,95.9936 300.555,112.327 286,131.5C 263.709,163.486 267.209,192.319 296.5,218C 312.987,230.576 331.32,239.41 351.5,244.5C 356.269,245.889 361.269,246.556 366.5,246.5C 380.044,249.14 393.711,249.973 407.5,249C 417.25,248.376 425.084,244.209 431,236.5C 441.129,215.546 448.129,193.546 452,170.5C 454.155,141.599 457.489,112.932 462,84.5C 464.667,97.1717 467.334,109.838 470,122.5C 471.008,127.339 473.841,130.339 478.5,131.5C 500.274,122.18 522.107,122.18 544,131.5C 548.543,130.626 551.543,127.96 553,123.5C 555.563,110.452 558.229,97.4525 561,84.5C 565.053,112.971 568.386,141.637 571,170.5C 574.366,193.674 581.366,215.674 592,236.5C 596.999,243.079 603.499,247.245 611.5,249C 624.894,249.764 638.228,249.264 651.5,247.5C 656.731,247.556 661.731,246.889 666.5,245.5C 694.467,239.936 718.3,226.936 738,206.5C 755.654,182.86 755.987,158.86 739,134.5C 731.582,124.411 723.415,114.911 714.5,106C 703.531,96.5187 692.198,87.5187 680.5,79C 739.164,97.6665 793.831,124.333 844.5,159C 879.203,183.939 907.369,214.772 929,251.5C 947.521,285.937 954.687,322.603 950.5,361.5 Z"/></g>
<g><path style="opacity:1" fill="#424242" d="M 101.5,135.5 C 99.1002,138.903 96.1002,141.57 92.5,143.5C 94.8998,140.097 97.8998,137.43 101.5,135.5 Z"/></g>
<g><path style="opacity:1" fill="#7b7b7b" d="M 88.5,147.5 C 87.1667,149.5 85.5,151.167 83.5,152.5C 84.1667,149.833 85.8333,148.167 88.5,147.5 Z"/></g>
<g><path style="opacity:0.412" fill="#858585" d="M 986.5,211.5 C 987.906,211.973 988.573,212.973 988.5,214.5C 987.094,214.027 986.427,213.027 986.5,211.5 Z"/></g>
<g><path style="opacity:1" fill="#afaf00" d="M 351.5,244.5 C 356.731,244.444 361.731,245.111 366.5,246.5C 361.269,246.556 356.269,245.889 351.5,244.5 Z"/></g>
<g><path style="opacity:1" fill="#353508" d="M 666.5,245.5 C 661.731,246.889 656.731,247.556 651.5,247.5C 656.269,246.111 661.269,245.444 666.5,245.5 Z"/></g>
<g><path style="opacity:1" fill="#6f6f6f" d="M 1010.5,261.5 C 1012.28,264.505 1013.28,267.838 1013.5,271.5C 1011.72,268.495 1010.72,265.162 1010.5,261.5 Z"/></g>
<g><path style="opacity:1" fill="#656565" d="M 11.5,264.5 C 11.5905,267.152 10.9238,269.485 9.5,271.5C 9.40953,268.848 10.0762,266.515 11.5,264.5 Z"/></g>
<g><path style="opacity:1" fill="#606060" d="M 9.5,271.5 C 9.2766,275.162 8.2766,278.495 6.5,281.5C 6.7234,277.838 7.7234,274.505 9.5,271.5 Z"/></g>
<g><path style="opacity:1" fill="#5d5d5d" d="M 1013.5,271.5 C 1014.92,273.515 1015.59,275.848 1015.5,278.5C 1014.08,276.485 1013.41,274.152 1013.5,271.5 Z"/></g>
<g><path style="opacity:1" fill="#a6a600" d="M 978.5,281.5 C 979.924,283.515 980.59,285.848 980.5,288.5C 979.076,286.485 978.41,284.152 978.5,281.5 Z"/></g>
<g><path style="opacity:1" fill="#555555" d="M 3.5,295.5 C 3.23542,302.736 2.23542,309.736 0.5,316.5C 0.678385,309.251 1.67839,302.251 3.5,295.5 Z"/></g>
<g><path style="opacity:1" fill="#5d5d5d" d="M 1019.5,295.5 C 1021.32,302.251 1022.32,309.251 1022.5,316.5C 1020.76,309.736 1019.76,302.736 1019.5,295.5 Z"/></g>
<g><path style="opacity:1" fill="#a9a901" d="M 39.5,302.5 C 39.6382,307.414 38.9715,312.081 37.5,316.5C 37.3618,311.586 38.0285,306.919 39.5,302.5 Z"/></g>
<g><path style="opacity:1" fill="#a1a101" d="M 983.5,302.5 C 984.972,306.919 985.638,311.586 985.5,316.5C 984.028,312.081 983.362,307.414 983.5,302.5 Z"/></g>
<g><path style="opacity:1" fill="#a4a401" d="M 950.5,361.5 C 950.664,364.187 950.497,366.854 950,369.5C 949.722,370.416 949.222,371.082 948.5,371.5C 948.753,367.96 949.419,364.627 950.5,361.5 Z"/></g>
<g><path style="opacity:1" fill="#a9a900" d="M 77.5,387.5 C 78.9238,389.515 79.5905,391.848 79.5,394.5C 78.0762,392.485 77.4095,390.152 77.5,387.5 Z"/></g>
<g><path style="opacity:1" fill="#969600" d="M 707.5,404.5 C 698.815,404.464 690.149,404.797 681.5,405.5C 686.59,404.035 691.923,403.368 697.5,403.5C 701.018,403.502 704.351,403.835 707.5,404.5 Z"/></g>
<g><path style="opacity:1" fill="#848401" d="M 768.5,424.5 C 768.556,429.731 767.889,434.731 766.5,439.5C 766.444,434.269 767.111,429.269 768.5,424.5 Z"/></g>
<g><path style="opacity:1" fill="#575700" d="M 404.5,520.5 C 404.328,521.492 404.662,522.158 405.5,522.5C 404.698,523.885 404.031,523.718 403.5,522C 403.57,521.235 403.903,520.735 404.5,520.5 Z"/></g>
<g><path style="opacity:1" fill="#717100" d="M 618.5,520.5 C 619.404,521.209 619.737,522.209 619.5,523.5C 617.901,523.768 616.568,523.434 615.5,522.5C 617.179,522.715 618.179,522.048 618.5,520.5 Z"/></g>
<g><path style="opacity:1" fill="#868686" d="M 89.5,529.5 C 91.4044,529.738 92.7377,530.738 93.5,532.5C 91.5956,532.262 90.2623,531.262 89.5,529.5 Z"/></g>
<g><path style="opacity:0.424" fill="#868686" d="M 155.5,580.5 C 157.027,580.427 158.027,581.094 158.5,582.5C 156.973,582.573 155.973,581.906 155.5,580.5 Z"/></g>
<g><path style="opacity:0.384" fill="#868686" d="M 175.5,592.5 C 177.027,592.427 178.027,593.094 178.5,594.5C 176.973,594.573 175.973,593.906 175.5,592.5 Z"/></g>
<g><path style="opacity:1" fill="#858601" d="M 514.5,584.5 C 514.556,589.731 513.889,594.731 512.5,599.5C 512.444,594.269 513.111,589.269 514.5,584.5 Z"/></g>
<g><path style="opacity:1" fill="#464602" d="M 512.5,602.5 C 512.5,606.5 512.5,610.5 512.5,614.5C 511.833,613.167 511.167,611.833 510.5,610.5C 510.5,608.5 510.5,606.5 510.5,604.5C 511.167,603.833 511.833,603.167 512.5,602.5 Z"/></g>
<g><path style="opacity:1" fill="#aaaa00" d="M 317.5,618.5 C 320.152,618.41 322.485,619.076 324.5,620.5C 321.848,620.59 319.515,619.924 317.5,618.5 Z"/></g>
<g><path style="opacity:1" fill="#b8b800" d="M 510.5,610.5 C 511.167,611.833 511.833,613.167 512.5,614.5C 512.664,617.187 512.497,619.854 512,622.5C 510.844,618.582 510.344,614.582 510.5,610.5 Z"/></g>
<g><path style="opacity:1" fill="#939301" d="M 419.5,639.5 C 424.731,639.444 429.731,640.111 434.5,641.5C 429.269,641.556 424.269,640.889 419.5,639.5 Z"/></g>
<g><path style="opacity:1" fill="#646464" d="M 293.5,643.5 C 296.152,643.41 298.485,644.076 300.5,645.5C 297.848,645.59 295.515,644.924 293.5,643.5 Z"/></g>
<g><path style="opacity:1" fill="#626262" d="M 300.5,645.5 C 304.162,645.723 307.495,646.723 310.5,648.5C 306.838,648.277 303.505,647.277 300.5,645.5 Z"/></g>
<g><path style="opacity:0.616" fill="#707070" d="M 310.5,648.5 C 313.152,648.41 315.485,649.076 317.5,650.5C 314.848,650.59 312.515,649.924 310.5,648.5 Z"/></g>
<g><path style="opacity:1" fill="#6b6b6b" d="M 399.5,667.5 C 404.731,667.444 409.731,668.111 414.5,669.5C 409.269,669.556 404.269,668.889 399.5,667.5 Z"/></g>
<g><path style="opacity:0.608" fill="#707070" d="M 414.5,669.5 C 420.069,669.376 425.402,670.043 430.5,671.5C 424.949,671.473 419.616,670.806 414.5,669.5 Z"/></g>
</svg>
