<?xml version="1.0" encoding="iso-8859-1"?>
<!-- Uploaded to: SVG Repo, www.svgrepo.com, Generator: SVG Repo Mixer Tools -->
<svg height="800px" width="800px" version="1.1" id="Capa_1" xmlns="http://www.w3.org/2000/svg" xmlns:xlink="http://www.w3.org/1999/xlink" 
	 viewBox="0 0 287.475 287.475" xml:space="preserve">
<g>
	<g id="Layer_x0020_1">
		<path style="fill:#030104;" d="M253.596,0.314l-30.048,47.007H64.014L33.74,0.314L15.826,0.063l-0.087,243.662
			c144.674,56.528,108.86,60.133,255.796-0.062L271.736,0L253.596,0.314z M218.624,103.12L218.624,103.12L218.624,103.12
			c-10.815,25.263-27.963,33.968-53.173,21.594C185.486,120.707,202.971,113.145,218.624,103.12L218.624,103.12z M70.018,103.12
			L70.018,103.12c15.653,10.025,33.138,17.587,53.174,21.594C97.98,137.088,80.835,128.383,70.018,103.12L70.018,103.12
			L70.018,103.12z M246.347,227.42c-118.671,49.017-82.404,50.461-204.933,0l-0.401-68.424L135,190.852
			c7.65,2.688,14.308,2.55,20.776,0l90.57-32.259v68.827H246.347z"/>
		<path style="fill:#030104;" d="M224,173.152l-14.308,5.252v55.925c4.422-1.96,9.183-4.019,14.308-6.205V173.152z"/>
		<polygon style="fill:#030104;" points="204.707,180.238 191.98,184.91 191.98,242.23 204.707,236.527 		"/>
		<path style="fill:#030104;" d="M186.994,186.732l-12.888,4.736v58.676c3.856-1.633,8.114-3.529,12.888-5.678V186.732z"/>
		<path style="fill:#030104;" d="M169.119,193.301l-12.876,4.724V256.5c3.894-0.954,8.065-2.387,12.876-4.295V193.301z"/>
		<path style="fill:#030104;" d="M138.166,199.08v58.212v0.001c4.522,0.766,8.705,0.815,13.089,0.188v-57.685
			C147.16,200.914,142.914,200.714,138.166,199.08z"/>
		<path style="fill:#030104;" d="M120.303,251.902c4.824,1.885,9.019,3.33,12.876,4.322v-58.891l-12.876-4.498
			C120.303,192.835,120.303,251.902,120.303,251.902z"/>
		<path style="fill:#030104;" d="M102.44,244.366c4.761,2.085,9.02,3.933,12.876,5.528v-58.803l-12.876-4.498V244.366z"/>
		<polygon style="fill:#030104;" points="84.666,236.54 97.453,242.168 97.453,184.86 84.666,180.388 		"/>
		<polygon style="fill:#030104;" points="65.182,228.123 79.678,234.366 79.678,178.655 64.868,173.479 		"/>
	</g>
</g>
</svg>