<?xml version="1.0" encoding="UTF-8"?>
<!DOCTYPE svg PUBLIC "-//W3C//DTD SVG 1.1//EN" "http://www.w3.org/Graphics/SVG/1.1/DTD/svg11.dtd">
<svg xmlns="http://www.w3.org/2000/svg" version="1.1" width="1200px" height="543px" style="shape-rendering:geometricPrecision; text-rendering:geometricPrecision; image-rendering:optimizeQuality; fill-rule:evenodd; clip-rule:evenodd" xmlns:xlink="http://www.w3.org/1999/xlink">
<g><path style="opacity:1" fill="#f11f22" d="M -0.5,-0.5 C 399.5,-0.5 799.5,-0.5 1199.5,-0.5C 1199.5,180.5 1199.5,361.5 1199.5,542.5C 799.5,542.5 399.5,542.5 -0.5,542.5C -0.5,361.5 -0.5,180.5 -0.5,-0.5 Z"/></g>
<g><path style="opacity:1" fill="#fffefe" d="M 495.5,425.5 C 495.687,427.564 496.187,429.564 497,431.5C 497.5,313.834 497.667,196.167 497.5,78.5C 537.835,78.3333 578.168,78.5 618.5,79C 646.181,89.8478 664.847,109.348 674.5,137.5C 674.987,138.473 675.487,139.473 676,140.5C 676.78,138.613 676.613,136.946 675.5,135.5C 673.239,115.818 670.906,96.1511 668.5,76.5C 692.176,76.1669 715.843,76.5003 739.5,77.5C 750.747,145.142 761.914,212.809 773,280.5C 784.734,213.194 796.234,145.861 807.5,78.5C 874.833,78.5 942.167,78.5 1009.5,78.5C 1009.5,103.167 1009.5,127.833 1009.5,152.5C 989.5,152.5 969.5,152.5 949.5,152.5C 949.5,179.833 949.5,207.167 949.5,234.5C 968.5,234.5 987.5,234.5 1006.5,234.5C 1006.5,262.167 1006.5,289.833 1006.5,317.5C 988.167,317.5 969.833,317.5 951.5,317.5C 950.502,342.661 950.169,367.995 950.5,393.5C 970.167,393.5 989.833,393.5 1009.5,393.5C 1009.5,420.167 1009.5,446.833 1009.5,473.5C 966.167,473.5 922.833,473.5 879.5,473.5C 879.667,346.5 879.5,219.5 879,92.5C 856.693,219.487 834.526,346.487 812.5,473.5C 785.5,473.5 758.5,473.5 731.5,473.5C 718.319,389.078 704.485,304.744 690,220.5C 685.729,250.319 675.729,277.986 660,303.5C 654.862,310.305 649.362,316.805 643.5,323C 660.475,372.758 677.141,422.591 693.5,472.5C 670.673,473.498 647.673,473.831 624.5,473.5C 607.599,430.141 591.266,386.474 575.5,342.5C 575.44,341.957 575.107,341.624 574.5,341.5C 573.5,385.495 573.167,429.495 573.5,473.5C 526.5,473.5 479.5,473.5 432.5,473.5C 430.538,460.766 428.205,448.099 425.5,435.5C 407.497,435.333 389.497,435.5 371.5,436C 367.292,447.997 363.626,460.163 360.5,472.5C 315.572,473.494 270.572,473.828 225.5,473.5C 225.667,425.166 225.5,376.832 225,328.5C 213.337,376.818 201.837,425.152 190.5,473.5C 178.167,473.5 165.833,473.5 153.5,473.5C 143.883,427.417 133.883,381.417 123.5,335.5C 123.108,333.821 122.608,332.154 122,330.5C 121.5,377.832 121.333,425.165 121.5,472.5C 97.158,472.369 72.8247,472.703 48.5,473.5C 48.5,341.167 48.5,208.833 48.5,76.5C 78.8407,76.1668 109.174,76.5002 139.5,77.5C 150.041,131.538 160.708,185.538 171.5,239.5C 184.034,185.305 196.034,130.972 207.5,76.5C 236.833,76.5 266.167,76.5 295.5,76.5C 295.333,194.167 295.5,311.834 296,429.5C 314.57,311.913 333.404,194.413 352.5,77C 382.405,76.1716 412.238,76.3383 442,77.5C 460.16,193.461 477.994,309.461 495.5,425.5 Z"/></g>
<g><path style="opacity:1" fill="#fffdfd" d="M 1035.5,76.5 C 1057.83,76.5 1080.17,76.5 1102.5,76.5C 1102.5,182.5 1102.5,288.5 1102.5,394.5C 1121.5,394.5 1140.5,394.5 1159.5,394.5C 1159.5,421.5 1159.5,448.5 1159.5,475.5C 1118.17,475.5 1076.83,475.5 1035.5,475.5C 1035.5,342.5 1035.5,209.5 1035.5,76.5 Z"/></g>
<g><path style="opacity:1" fill="#f88a8c" d="M 497.5,78.5 C 497.667,196.167 497.5,313.834 497,431.5C 496.187,429.564 495.687,427.564 495.5,425.5C 496.167,309.833 496.833,194.167 497.5,78.5 Z"/></g>
<g><path style="opacity:1" fill="#f89192" d="M 675.5,135.5 C 676.613,136.946 676.78,138.613 676,140.5C 675.487,139.473 674.987,138.473 674.5,137.5C 675.338,137.158 675.672,136.492 675.5,135.5 Z"/></g>
<g><path style="opacity:1" fill="#f77f81" d="M 576.5,148.5 C 575.5,148.5 574.5,148.5 573.5,148.5C 573.5,187.5 573.5,226.5 573.5,265.5C 574.833,265.5 576.167,265.5 577.5,265.5C 576.081,266.451 574.415,266.784 572.5,266.5C 572.5,226.833 572.5,187.167 572.5,147.5C 574.099,147.232 575.432,147.566 576.5,148.5 Z"/></g>
<g><path style="opacity:1" fill="#f11f22" d="M 576.5,148.5 C 588.295,149.978 597.461,155.644 604,165.5C 616.205,185.398 619.538,206.731 614,229.5C 609.856,249.812 597.69,261.812 577.5,265.5C 576.167,265.5 574.833,265.5 573.5,265.5C 573.5,226.5 573.5,187.5 573.5,148.5C 574.5,148.5 575.5,148.5 576.5,148.5 Z"/></g>
<g><path style="opacity:1" fill="#f12526" d="M 417.5,355.5 C 405.545,357.48 393.212,358.146 380.5,357.5C 385.542,317.709 391.375,278.042 398,238.5C 404.92,277.444 411.42,316.444 417.5,355.5 Z"/></g>
<g><path style="opacity:1" fill="#f6696c" d="M 123.5,335.5 C 122.833,381.167 122.167,426.833 121.5,472.5C 121.333,425.165 121.5,377.832 122,330.5C 122.608,332.154 123.108,333.821 123.5,335.5 Z"/></g>
<g><path style="opacity:1" fill="#fde4e5" d="M 575.5,342.5 C 574.833,386.167 574.167,429.833 573.5,473.5C 573.167,429.495 573.5,385.495 574.5,341.5C 575.107,341.624 575.44,341.957 575.5,342.5 Z"/></g>
<g><path style="opacity:1" fill="#f45253" d="M 417.5,355.5 C 418.404,356.209 418.737,357.209 418.5,358.5C 405.656,358.829 392.989,358.495 380.5,357.5C 393.212,358.146 405.545,357.48 417.5,355.5 Z"/></g>
<g><path style="opacity:1" fill="#f7615d" d="M 951.5,317.5 C 951.5,342.5 951.5,367.5 951.5,392.5C 971.007,392.17 990.341,392.503 1009.5,393.5C 989.833,393.5 970.167,393.5 950.5,393.5C 950.169,367.995 950.502,342.661 951.5,317.5 Z"/></g>
<g><path style="opacity:1" fill="#f33c3f" d="M 360.5,472.5 C 338.343,473.833 315.843,474.5 293,474.5C 270.331,474.5 247.831,474.167 225.5,473.5C 270.572,473.828 315.572,473.494 360.5,472.5 Z"/></g>
<g><path style="opacity:1" fill="#f33c3f" d="M 693.5,472.5 C 694.043,472.56 694.376,472.893 694.5,473.5C 671.003,474.829 647.67,474.829 624.5,473.5C 647.673,473.831 670.673,473.498 693.5,472.5 Z"/></g>
</svg>
